<?xml version="1.0" encoding="UTF-8"?>
<!--Generator: Apple Native CoreSVG 341-->
<!DOCTYPE svg
PUBLIC "-//W3C//DTD SVG 1.1//EN"
       "http://www.w3.org/Graphics/SVG/1.1/DTD/svg11.dtd">
<svg version="1.1" xmlns="http://www.w3.org/2000/svg" xmlns:xlink="http://www.w3.org/1999/xlink" viewBox="0 0 3300 2200">
 <!--glyph: "", point size: 100.0, font version: "21.0d4e1", template writer version: "138.0.0"-->
 <style>.defaults {-sfsymbols-variable-value-mode:color;-sfsymbols-draw-reverses-motion-groups:false}

.monochrome-0 {-sfsymbols-motion-group:1;-sfsymbols-layer-tags:-6f4ad490e9505050 speaker.wave.1.arrowtriangles.up.right.down.left}
.monochrome-1 {opacity:0.0;-sfsymbols-clear-behind:true;-sfsymbols-motion-group:0;-sfsymbols-layer-tags:-6f4ad490e9505050 speaker.wave.1.arrowtriangles.up.right.down.left}
.monochrome-2 {opacity:0.0;-sfsymbols-clear-behind:true;-sfsymbols-variable-threshold:0.0;-sfsymbols-motion-group:0;-sfsymbols-layer-tags:-6f4ad490e9505050 speaker.wave.1.arrowtriangles.up.right.down.left}

.multicolor-0:tintColor {-sfsymbols-motion-group:1;-sfsymbols-layer-tags:-6f4ad490e9505050 speaker.wave.1.arrowtriangles.up.right.down.left}
.multicolor-1:tintColor {-sfsymbols-motion-group:0;-sfsymbols-layer-tags:-6f4ad490e9505050 speaker.wave.1.arrowtriangles.up.right.down.left}
.multicolor-2:tintColor {-sfsymbols-variable-threshold:0.0;-sfsymbols-motion-group:0;-sfsymbols-layer-tags:-6f4ad490e9505050 speaker.wave.1.arrowtriangles.up.right.down.left}

.hierarchical-0:secondary {-sfsymbols-motion-group:1;-sfsymbols-layer-tags:-6f4ad490e9505050 speaker.wave.1.arrowtriangles.up.right.down.left}
.hierarchical-1:primary {-sfsymbols-motion-group:0;-sfsymbols-layer-tags:-6f4ad490e9505050 speaker.wave.1.arrowtriangles.up.right.down.left}
.hierarchical-2:primary {-sfsymbols-variable-threshold:0.0;-sfsymbols-motion-group:0;-sfsymbols-layer-tags:-6f4ad490e9505050 speaker.wave.1.arrowtriangles.up.right.down.left}

.SFSymbolsPreviewWireframe {fill:none;opacity:1.0;stroke:black;stroke-width:0.5}
</style>
 <g id="Notes">
  <rect height="2200" id="artboard" style="fill:white;opacity:1" width="3300" x="0" y="0"/>
  <line style="fill:none;stroke:black;opacity:1;stroke-width:0.5;" x1="263" x2="3036" y1="292" y2="292"/>
  <text style="stroke:none;fill:black;font-family:sans-serif;font-size:13;font-weight:bold;" transform="matrix(1 0 0 1 263 322)">Weight/Scale Variations</text>
  <text style="stroke:none;fill:black;font-family:sans-serif;font-size:13;text-anchor:middle;" transform="matrix(1 0 0 1 559.711 322)">Ultralight</text>
  <text style="stroke:none;fill:black;font-family:sans-serif;font-size:13;text-anchor:middle;" transform="matrix(1 0 0 1 856.422 322)">Thin</text>
  <text style="stroke:none;fill:black;font-family:sans-serif;font-size:13;text-anchor:middle;" transform="matrix(1 0 0 1 1153.13 322)">Light</text>
  <text style="stroke:none;fill:black;font-family:sans-serif;font-size:13;text-anchor:middle;" transform="matrix(1 0 0 1 1449.84 322)">Regular</text>
  <text style="stroke:none;fill:black;font-family:sans-serif;font-size:13;text-anchor:middle;" transform="matrix(1 0 0 1 1746.56 322)">Medium</text>
  <text style="stroke:none;fill:black;font-family:sans-serif;font-size:13;text-anchor:middle;" transform="matrix(1 0 0 1 2043.27 322)">Semibold</text>
  <text style="stroke:none;fill:black;font-family:sans-serif;font-size:13;text-anchor:middle;" transform="matrix(1 0 0 1 2339.98 322)">Bold</text>
  <text style="stroke:none;fill:black;font-family:sans-serif;font-size:13;text-anchor:middle;" transform="matrix(1 0 0 1 2636.69 322)">Heavy</text>
  <text style="stroke:none;fill:black;font-family:sans-serif;font-size:13;text-anchor:middle;" transform="matrix(1 0 0 1 2933.4 322)">Black</text>
  <line style="fill:none;stroke:black;opacity:1;stroke-width:0.5;" x1="263" x2="3036" y1="1903" y2="1903"/>
  <g transform="matrix(0.2 0 0 0.2 263 1933)">
   <path d="m46.2402 4.15039c21.7773 0 39.4531-17.627 39.4531-39.4043s-17.6758-39.4043-39.4531-39.4043c-21.7285 0-39.4043 17.627-39.4043 39.4043s17.6758 39.4043 39.4043 39.4043Zm0-7.42188c-17.6758 0-31.9336-14.3066-31.9336-31.9824s14.2578-31.9824 31.9336-31.9824 31.9824 14.3066 31.9824 31.9824-14.3066 31.9824-31.9824 31.9824Zm3.61328-17.7734v-28.4668c0-2.24609-1.46484-3.75977-3.71094-3.75977-2.14844 0-3.61328 1.51367-3.61328 3.75977v28.4668c0 2.19727 1.46484 3.71094 3.61328 3.71094 2.24609 0 3.71094-1.51367 3.71094-3.71094Zm-17.8223-10.5957h28.418c2.19727 0 3.71094-1.46484 3.71094-3.61328 0-2.19727-1.51367-3.71094-3.71094-3.71094h-28.418c-2.24609 0-3.75977 1.51367-3.75977 3.71094 0 2.14844 1.51367 3.61328 3.75977 3.61328Z"/>
  </g>
  <g transform="matrix(0.2 0 0 0.2 281.506 1933)">
   <path d="m58.5449 14.5508c27.4902 0 49.8047-22.3145 49.8047-49.8047s-22.3145-49.8047-49.8047-49.8047-49.8047 22.3145-49.8047 49.8047 22.3145 49.8047 49.8047 49.8047Zm0-8.30078c-22.9492 0-41.5039-18.5547-41.5039-41.5039s18.5547-41.5039 41.5039-41.5039 41.5039 18.5547 41.5039 41.5039-18.5547 41.5039-41.5039 41.5039Zm4.05273-23.0957v-36.9141c0-2.49023-1.70898-4.19922-4.15039-4.19922-2.39258 0-4.05273 1.70898-4.05273 4.19922v36.9141c0 2.44141 1.66016 4.15039 4.05273 4.15039 2.44141 0 4.15039-1.66016 4.15039-4.15039Zm-22.5586-14.4043h36.9629c2.44141 0 4.15039-1.61133 4.15039-4.00391 0-2.44141-1.70898-4.15039-4.15039-4.15039h-36.9629c-2.49023 0-4.15039 1.70898-4.15039 4.15039 0 2.39258 1.66016 4.00391 4.15039 4.00391Z"/>
  </g>
  <g transform="matrix(0.2 0 0 0.2 304.924 1933)">
   <path d="m74.8535 28.3203c35.1074 0 63.623-28.4668 63.623-63.5742s-28.5156-63.623-63.623-63.623-63.5742 28.5156-63.5742 63.623 28.4668 63.5742 63.5742 63.5742Zm0-9.08203c-30.127 0-54.4922-24.3652-54.4922-54.4922s24.3652-54.4922 54.4922-54.4922 54.4922 24.3652 54.4922 54.4922-24.3652 54.4922-54.4922 54.4922Zm4.44336-30.3223v-48.4863c0-2.73438-1.85547-4.63867-4.54102-4.63867-2.58789 0-4.44336 1.9043-4.44336 4.63867v48.4863c0 2.68555 1.85547 4.58984 4.44336 4.58984 2.68555 0 4.54102-1.85547 4.54102-4.58984Zm-28.7109-19.7754h48.4863c2.68555 0 4.58984-1.80664 4.58984-4.39453 0-2.73438-1.85547-4.58984-4.58984-4.58984h-48.4863c-2.73438 0-4.58984 1.85547-4.58984 4.58984 0 2.58789 1.85547 4.39453 4.58984 4.39453Z"/>
  </g>
  <text style="stroke:none;fill:black;font-family:sans-serif;font-size:13;font-weight:bold;" transform="matrix(1 0 0 1 263 1953)">Design Variations</text>
  <text style="stroke:none;fill:black;font-family:sans-serif;font-size:13;" transform="matrix(1 0 0 1 263 1971)">Symbols are supported in up to nine weights and three scales.</text>
  <text style="stroke:none;fill:black;font-family:sans-serif;font-size:13;" transform="matrix(1 0 0 1 263 1989)">For optimal layout with text and other symbols, vertically align</text>
  <text style="stroke:none;fill:black;font-family:sans-serif;font-size:13;" transform="matrix(1 0 0 1 263 2007)">symbols with the adjacent text.</text>
  <line style="fill:none;stroke:#00AEEF;stroke-width:0.5;opacity:1.0;" x1="776" x2="776" y1="1919" y2="1933"/>
  <g transform="matrix(0.2 0 0 0.2 776 1933)">
   <path d="m16.5527 0.78125c2.58789 0 3.85742-0.976562 4.78516-3.71094l20.5566-57.5195h0.244141l20.6055 57.5195c0.927734 2.73438 2.19727 3.71094 4.73633 3.71094 2.58789 0 4.24805-1.5625 4.24805-4.00391 0-0.830078-0.146484-1.61133-0.537109-2.63672l-22.9004-60.9863c-1.12305-2.97852-3.125-4.49219-6.25-4.49219-3.02734 0-5.07812 1.46484-6.15234 4.44336l-22.9004 61.084c-0.390625 1.02539-0.537109 1.80664-0.537109 2.63672 0 2.44141 1.5625 3.95508 4.10156 3.95508Zm10.2051-20.9473h30.6641c2.00195 0 3.66211-1.66016 3.66211-3.66211 0-2.05078-1.66016-3.66211-3.66211-3.66211h-30.6641c-2.00195 0-3.66211 1.61133-3.66211 3.66211 0 2.00195 1.66016 3.66211 3.66211 3.66211Z"/>
  </g>
  <line style="fill:none;stroke:#00AEEF;stroke-width:0.5;opacity:1.0;" x1="792.836" x2="792.836" y1="1919" y2="1933"/>
  <text style="stroke:none;fill:black;font-family:sans-serif;font-size:13;font-weight:bold;" transform="matrix(1 0 0 1 776 1953)">Margins</text>
  <text style="stroke:none;fill:black;font-family:sans-serif;font-size:13;" transform="matrix(1 0 0 1 776 1971)">Leading and trailing margins on the left and right side of each symbol</text>
  <text style="stroke:none;fill:black;font-family:sans-serif;font-size:13;" transform="matrix(1 0 0 1 776 1989)">can be adjusted by modifying the x-location of the margin guidelines.</text>
  <text style="stroke:none;fill:black;font-family:sans-serif;font-size:13;" transform="matrix(1 0 0 1 776 2007)">Modifications are automatically applied proportionally to all</text>
  <text style="stroke:none;fill:black;font-family:sans-serif;font-size:13;" transform="matrix(1 0 0 1 776 2025)">scales and weights.</text>
  <g transform="matrix(0.2 0 0 0.2 1289 1933)">
   <path d="m14.209 13.1348 7.86133 7.86133c4.29688 4.39453 9.32617 4.10156 13.8672-1.02539l60.6934-68.2129-4.88281-4.88281-60.2539 67.6758c-1.80664 1.95312-3.4668 2.44141-5.81055 0.0976562l-5.17578-5.12695c-2.29492-2.29492-1.80664-3.95508 0.195312-5.81055l67.4805-62.1582-4.88281-4.83398-68.0664 62.5977c-4.98047 4.58984-5.32227 9.47266-1.02539 13.8184Zm44.873-97.4609c-2.05078 2.00195-2.24609 4.88281-1.07422 6.78711 1.12305 1.80664 3.4668 3.02734 6.5918 2.24609 5.85938-1.66016 12.5977-2.39258 18.8965 0.927734l-2.68555 7.12891c-1.61133 4.00391-0.732422 6.88477 1.70898 9.42383l10.2539 10.3027c2.34375 2.39258 4.54102 2.44141 7.08008 1.95312l4.44336-0.732422 2.58789 2.53906-0.195312 2.24609c-0.0976562 2.29492 0.537109 4.29688 2.7832 6.49414l3.36914 3.32031c2.29492 2.29492 5.51758 2.49023 7.8125 0.195312l12.9883-13.0371c2.29492-2.34375 2.14844-5.37109-0.195312-7.66602l-3.41797-3.41797c-2.19727-2.19727-4.05273-3.02734-6.34766-2.88086l-2.34375 0.244141-2.44141-2.44141 1.02539-4.6875c0.634766-2.73438-0.244141-4.98047-2.88086-7.61719l-11.2793-11.1816c-12.9395-12.8418-35.5957-11.0352-46.6797-0.146484Zm7.08008 2.05078c8.78906-6.39648 25.9766-5.66406 33.6914 1.95312l12.3047 12.207c1.02539 1.02539 1.2207 1.80664 0.927734 3.32031l-1.46484 6.64062 6.73828 6.68945 4.39453-0.244141c1.12305-0.0488281 1.51367 0.0488281 2.34375 0.878906l2.53906 2.49023-10.8398 10.8398-2.49023-2.49023c-0.830078-0.878906-0.976562-1.2207-0.927734-2.39258l0.292969-4.3457-6.68945-6.73828-6.83594 1.17188c-1.41602 0.292969-2.05078 0.195312-3.17383-0.878906l-8.93555-8.88672c-1.07422-1.02539-1.17188-1.70898-0.488281-3.36914l4.58984-11.4746c-6.10352-6.34766-17.041-7.51953-25.5859-4.58984-0.683594 0.244141-0.927734-0.390625-0.390625-0.78125Z"/>
  </g>
  <text style="stroke:none;fill:black;font-family:sans-serif;font-size:13;font-weight:bold;" transform="matrix(1 0 0 1 1289 1953)">Exporting</text>
  <text style="stroke:none;fill:black;font-family:sans-serif;font-size:13;" transform="matrix(1 0 0 1 1289 1971)">Symbols should be outlined when exporting to ensure the</text>
  <text style="stroke:none;fill:black;font-family:sans-serif;font-size:13;" transform="matrix(1 0 0 1 1289 1989)">design is preserved when submitting to Xcode.</text>
  <text id="template-version" style="stroke:none;fill:black;font-family:sans-serif;font-size:13;text-anchor:end;" transform="matrix(1 0 0 1 3036 1933)">Template v.7.0</text>
  <text style="stroke:none;fill:black;font-family:sans-serif;font-size:13;text-anchor:end;" transform="matrix(1 0 0 1 3036 1951)">Requires Xcode 17 or greater</text>
  <text id="descriptive-name" style="stroke:none;fill:black;font-family:sans-serif;font-size:13;text-anchor:end;" transform="matrix(1 0 0 1 3036 1969)">Generated from custom.arrowtriangles.up.right.down.left</text>
  <text style="stroke:none;fill:black;font-family:sans-serif;font-size:13;text-anchor:end;" transform="matrix(1 0 0 1 3036 1987)">Typeset at 100.0 points</text>
  <text style="stroke:none;fill:black;font-family:sans-serif;font-size:13;" transform="matrix(1 0 0 1 263 726)">Small</text>
  <text style="stroke:none;fill:black;font-family:sans-serif;font-size:13;" transform="matrix(1 0 0 1 263 1156)">Medium</text>
  <text style="stroke:none;fill:black;font-family:sans-serif;font-size:13;" transform="matrix(1 0 0 1 263 1586)">Large</text>
 </g>
 <g id="Guides">
  <g id="H-reference" style="fill:#27AAE1;stroke:none;" transform="matrix(1 0 0 1 339 696)">
   <path d="M0.993654 0L3.63775 0L29.3281-67.1323L30.0303-67.1323L30.0303-70.459L28.1226-70.459ZM11.6885-24.4799L46.9815-24.4799L46.2315-26.7285L12.4385-26.7285ZM55.1196 0L57.7637 0L30.6382-70.459L29.4326-70.459L29.4326-67.1323Z"/>
  </g>
  <line id="Baseline-S" style="fill:none;stroke:#27AAE1;opacity:1;stroke-width:0.5;" x1="263" x2="3036" y1="696" y2="696"/>
  <line id="Capline-S" style="fill:none;stroke:#27AAE1;opacity:1;stroke-width:0.5;" x1="263" x2="3036" y1="625.541" y2="625.541"/>
  <g id="H-reference" style="fill:#27AAE1;stroke:none;" transform="matrix(1 0 0 1 339 1126)">
   <path d="M0.993654 0L3.63775 0L29.3281-67.1323L30.0303-67.1323L30.0303-70.459L28.1226-70.459ZM11.6885-24.4799L46.9815-24.4799L46.2315-26.7285L12.4385-26.7285ZM55.1196 0L57.7637 0L30.6382-70.459L29.4326-70.459L29.4326-67.1323Z"/>
  </g>
  <line id="Baseline-M" style="fill:none;stroke:#27AAE1;opacity:1;stroke-width:0.5;" x1="263" x2="3036" y1="1126" y2="1126"/>
  <line id="Capline-M" style="fill:none;stroke:#27AAE1;opacity:1;stroke-width:0.5;" x1="263" x2="3036" y1="1055.54" y2="1055.54"/>
  <g id="H-reference" style="fill:#27AAE1;stroke:none;" transform="matrix(1 0 0 1 339 1556)">
   <path d="M0.993654 0L3.63775 0L29.3281-67.1323L30.0303-67.1323L30.0303-70.459L28.1226-70.459ZM11.6885-24.4799L46.9815-24.4799L46.2315-26.7285L12.4385-26.7285ZM55.1196 0L57.7637 0L30.6382-70.459L29.4326-70.459L29.4326-67.1323Z"/>
  </g>
  <line id="Baseline-L" style="fill:none;stroke:#27AAE1;opacity:1;stroke-width:0.5;" x1="263" x2="3036" y1="1556" y2="1556"/>
  <line id="Capline-L" style="fill:none;stroke:#27AAE1;opacity:1;stroke-width:0.5;" x1="263" x2="3036" y1="1485.54" y2="1485.54"/>
  <line id="right-margin-Black-S" style="fill:none;stroke:#00AEEF;stroke-width:0.5;opacity:1.0;" x1="2985.21" x2="2985.21" y1="600.785" y2="720.121"/>
  <line id="left-margin-Black-S" style="fill:none;stroke:#00AEEF;stroke-width:0.5;opacity:1.0;" x1="2881.59" x2="2881.59" y1="600.785" y2="720.121"/>
  <line id="right-margin-Regular-S" style="fill:none;stroke:#00AEEF;stroke-width:0.5;opacity:1.0;" x1="1500.87" x2="1500.87" y1="600.785" y2="720.121"/>
  <line id="left-margin-Regular-S" style="fill:none;stroke:#00AEEF;stroke-width:0.5;opacity:1.0;" x1="1398.82" x2="1398.82" y1="600.785" y2="720.121"/>
  <line id="right-margin-Ultralight-S" style="fill:none;stroke:#00AEEF;stroke-width:0.5;opacity:1.0;" x1="606.513" x2="606.513" y1="600.785" y2="720.121"/>
  <line id="left-margin-Ultralight-S" style="fill:none;stroke:#00AEEF;stroke-width:0.5;opacity:1.0;" x1="512.909" x2="512.909" y1="600.785" y2="720.121"/>
 </g>
 <g id="Symbols">
  <g id="Black-S" transform="matrix(1 0 0 1 2881.59 696)">
   <path class="monochrome-0 multicolor-0:tintColor hierarchical-0:secondary SFSymbolsPreviewWireframe" d="M39.3555-68.5059C38.2324-67.3828 37.7441-66.0645 37.7441-64.8438C37.7441-62.5977 39.502-60.6445 42.334-60.6445L61.2793-60.6445C64.1113-60.6445 65.8691-62.5977 65.8691-64.8438C65.8691-66.0645 65.3809-67.3828 64.2578-68.5059L55.4688-77.6367C54.4434-78.7109 53.125-79.248 51.8066-79.248C50.4883-79.248 49.1699-78.7109 48.1445-77.6367ZM39.3555-2.00195L48.1445 7.12891C49.1699 8.20312 50.4883 8.74023 51.8066 8.74023C53.125 8.74023 54.4434 8.20312 55.4688 7.12891L64.2578-2.00195C65.3809-3.125 65.8691-4.44336 65.8691-5.66406C65.8691-7.91016 64.1113-9.86328 61.2793-9.86328L42.334-9.86328C39.502-9.86328 37.7441-7.91016 37.7441-5.66406C37.7441-4.44336 38.2324-3.125 39.3555-2.00195ZM85.0586-47.7051C83.9355-48.8281 82.6172-49.3164 81.3965-49.3164C79.1504-49.3164 77.1973-47.5586 77.1973-44.7266L77.1973-25.7812C77.1973-22.9492 79.1504-21.1914 81.3965-21.1914C82.6172-21.1914 83.9355-21.6797 85.0586-22.8027L94.1895-31.5918C95.2637-32.6172 95.8008-33.9355 95.8008-35.2539C95.8008-36.5723 95.2637-37.8906 94.1895-38.916ZM18.5547-47.7051L9.42383-38.916C8.34961-37.8906 7.8125-36.5723 7.8125-35.2539C7.8125-33.9355 8.34961-32.6172 9.42383-31.5918L18.5547-22.8027C19.6777-21.6797 20.9961-21.1914 22.2168-21.1914C24.4629-21.1914 26.416-22.9492 26.416-25.7812L26.416-44.7266C26.416-47.5586 24.4629-49.3164 22.2168-49.3164C20.9961-49.3164 19.6777-48.8281 18.5547-47.7051Z"/>
   <path class="monochrome-1 multicolor-1:tintColor hierarchical-1:primary SFSymbolsPreviewWireframe" d="M54.1016-20.5078C55.8594-20.5078 57.3242-21.9238 57.3242-23.7305L57.3242-46.7773C57.3242-48.584 55.8594-49.9512 54.1016-49.9512C52.9785-49.9512 52.0996-49.5117 50.9766-48.5352L44.6777-42.9688C44.5801-42.8711 44.4824-42.8223 44.2871-42.8223L40.7227-42.8223C37.6465-42.8223 35.9375-41.0645 35.9375-37.8906L35.9375-32.6172C35.9375-29.4434 37.6465-27.6367 40.7227-27.6367L44.3848-27.6367C44.5312-27.6367 44.6289-27.6367 44.7266-27.5391L50.9766-21.9238C52.0508-20.9961 52.9297-20.5078 54.1016-20.5078Z"/>
   <path class="monochrome-2 multicolor-2:tintColor hierarchical-2:primary SFSymbolsPreviewWireframe" d="M62.7441-27.002C64.0137-26.2207 65.5273-26.6113 66.2598-27.6855C67.7246-29.7852 68.7012-32.4219 68.7012-35.2539C68.7012-38.0859 67.7734-40.7227 66.2598-42.8223C65.5762-43.8477 64.0625-44.1895 62.7441-43.5059C61.377-42.7734 61.0352-41.0645 62.207-39.0625C62.8906-37.9395 63.2324-36.6211 63.2324-35.2539C63.2324-33.8867 62.8418-32.5684 62.207-31.4453C61.084-29.3945 61.377-27.832 62.7441-27.002Z"/>
  </g>
  <g id="Regular-S" transform="matrix(1 0 0 1 1398.82 696)">
   <path class="monochrome-0 multicolor-0:tintColor hierarchical-0:secondary SFSymbolsPreviewWireframe" d="M38.4277-66.9922C37.5488-66.1621 37.207-65.2344 37.207-64.3555C37.207-62.8418 38.4766-61.5723 40.332-61.5723L61.7188-61.5723C63.5742-61.5723 64.8438-62.8418 64.8438-64.3555C64.8438-65.2344 64.502-66.1621 63.623-66.9922L53.8086-77.1973C52.9785-78.0762 52.002-78.4668 51.0254-78.4668C50.0488-78.4668 49.0723-78.0762 48.2422-77.1973ZM38.4277-3.51562L48.2422 6.68945C49.0723 7.56836 50.0488 7.95898 51.0254 7.95898C52.002 7.95898 52.9785 7.56836 53.8086 6.68945L63.623-3.51562C64.502-4.3457 64.8438-5.27344 64.8438-6.15234C64.8438-7.66602 63.5742-8.93555 61.7188-8.93555L40.332-8.93555C38.4766-8.93555 37.207-7.66602 37.207-6.15234C37.207-5.27344 37.5488-4.3457 38.4277-3.51562ZM82.7637-47.8027C81.9336-48.6816 81.0059-49.0234 80.127-49.0234C78.6133-49.0234 77.3438-47.7539 77.3438-45.8984L77.3438-24.5117C77.3438-22.6562 78.6133-21.3867 80.127-21.3867C81.0059-21.3867 81.9336-21.7285 82.7637-22.6074L92.9688-32.4219C93.8477-33.252 94.2383-34.2285 94.2383-35.2051C94.2383-36.1816 93.8477-37.1582 92.9688-37.9883ZM19.2871-47.8027L9.08203-37.9883C8.20312-37.1582 7.8125-36.1816 7.8125-35.2051C7.8125-34.2285 8.20312-33.252 9.08203-32.4219L19.2871-22.6074C20.1172-21.7285 21.0449-21.3867 21.9238-21.3867C23.4375-21.3867 24.707-22.6562 24.707-24.5117L24.707-45.8984C24.707-47.7539 23.4375-49.0234 21.9238-49.0234C21.0449-49.0234 20.1172-48.6816 19.2871-47.8027Z"/>
   <path class="monochrome-1 multicolor-1:tintColor hierarchical-1:primary SFSymbolsPreviewWireframe" d="M54.9316-18.1152C56.25-18.1152 57.3242-19.0918 57.3242-20.459L57.3242-49.9023C57.3242-51.2695 56.25-52.3438 54.8828-52.3438C53.9062-52.3438 53.2715-51.9043 52.1484-50.8789L44.0918-43.3594C43.9941-43.2617 43.8477-43.2617 43.7012-43.2617L38.3301-43.2617C35.498-43.2617 34.082-41.7969 34.082-38.7695L34.082-31.6895C34.082-28.6621 35.498-27.2461 38.3301-27.2461L43.7012-27.2461C43.8477-27.2461 43.9941-27.1973 44.0918-27.0996L52.1484-19.4336C53.125-18.5059 53.9551-18.1152 54.9316-18.1152Z"/>
   <path class="monochrome-2 multicolor-2:tintColor hierarchical-2:primary SFSymbolsPreviewWireframe" d="M63.4766-26.6602C64.4043-25.9277 65.7227-26.2207 66.5039-27.2461C68.0176-29.1992 68.8965-32.1289 68.8965-35.2539C68.8965-38.2812 67.9688-41.2598 66.5039-43.2617C65.7715-44.2871 64.4043-44.5801 63.4766-43.8477C62.3535-43.0664 62.1582-41.748 62.9883-40.5762C63.8672-39.3555 64.4531-37.3047 64.4531-35.2539C64.4531-33.252 63.8672-31.25 62.9883-29.9316C62.1582-28.7109 62.3535-27.4414 63.4766-26.6602Z"/>
  </g>
  <g id="Ultralight-S" transform="matrix(1 0 0 1 512.909 696)">
   <path class="monochrome-0 multicolor-0:tintColor hierarchical-0:secondary SFSymbolsPreviewWireframe" d="M35.7486-63.8135C35.2329-63.3467 34.982-62.7822 34.982-62.2212C34.982-61.1616 35.8882-60.21 37.2442-60.21L56.3604-60.21C57.7618-60.21 58.6226-61.1616 58.6226-62.2212C58.6226-62.7822 58.3716-63.3467 57.856-63.8135L48.8589-73.292C48.2559-73.9439 47.5518-74.2437 46.8023-74.2437C46.0982-74.2437 45.3941-73.9439 44.791-73.292ZM35.7486-6.69431L44.791 2.78421C45.3941 3.43607 46.0982 3.73587 46.8023 3.73587C47.5518 3.73587 48.2559 3.43607 48.8589 2.78421L57.856-6.69431C58.3716-7.16111 58.6226-7.72557 58.6226-8.2866C58.6226-9.34618 57.7618-10.2978 56.3604-10.2978L37.2442-10.2978C35.8882-10.2978 34.982-9.34618 34.982-8.2866C34.982-7.72557 35.2329-7.16111 35.7486-6.69431ZM75.3619-46.2588C74.8951-46.7744 74.3306-47.0254 73.7696-47.0254C72.71-47.0254 71.7583-46.1192 71.7583-44.7632L71.7583-25.647C71.7583-24.2456 72.71-23.3847 73.7696-23.3847C74.3306-23.3847 74.8951-23.6357 75.3619-24.1514L84.8404-33.1484C85.4923-33.7515 85.7921-34.4556 85.7921-35.2051C85.7921-35.9092 85.4923-36.6133 84.8404-37.2163ZM18.1973-46.2588L8.76416-37.2163C8.11231-36.6133 7.8125-35.9092 7.8125-35.2051C7.8125-34.4556 8.11231-33.7515 8.76416-33.1484L18.1973-24.1514C18.7095-23.6357 19.2739-23.3847 19.835-23.3847C20.8946-23.3847 21.8462-24.2456 21.8462-25.647L21.8462-44.7632C21.8462-46.1192 20.8946-47.0254 19.835-47.0254C19.2739-47.0254 18.7095-46.7744 18.1973-46.2588Z"/>
   <path class="monochrome-1 multicolor-1:tintColor hierarchical-1:primary SFSymbolsPreviewWireframe" d="M50.7085-19.6138C51.5274-19.6138 51.875-20.1816 51.875-20.9131L51.875-49.5845C51.875-50.3613 51.5274-50.936 50.7051-50.936C50.1826-50.936 49.7295-50.5874 49.3784-50.2886L40.7769-41.9063C40.543-41.7178 40.3511-41.6724 40.0684-41.6724L34.0161-41.6724C32.501-41.6724 31.2212-40.3892 31.2212-38.8149L31.2212-31.5532C31.2212-29.9336 32.501-28.6538 34.0161-28.6538L40.0684-28.6538C40.3511-28.6538 40.543-28.5596 40.7769-28.4165L49.3784-20.2056C49.7193-19.9136 50.1861-19.6138 50.7085-19.6138Z"/>
   <path class="monochrome-2 multicolor-2:tintColor hierarchical-2:primary SFSymbolsPreviewWireframe" d="M58.8902-27.3413C59.3184-27.1084 59.9556-27.0835 60.419-27.6548C61.9781-29.6533 62.7662-32.4922 62.7662-35.2539C62.7662-38.0088 61.9747-40.8511 60.419-42.853C59.959-43.4243 59.3184-43.3994 58.8902-43.1665C58.4029-42.8394 58.2076-42.2021 58.7198-41.5752C59.9165-39.9912 60.6841-37.7134 60.6841-35.2539C60.6841-32.7979 59.9165-30.5234 58.7198-28.9326C58.2076-28.3022 58.4029-27.6685 58.8902-27.3413Z"/>
  </g>
 </g>
</svg>
