<svg width="280" height="341" viewBox="0 0 280 341" fill="none" xmlns="http://www.w3.org/2000/svg">
<path d="M33.1568 340.053C22.0915 340.053 13.8601 337.287 8.46244 331.754C3.19972 326.356 0.568359 318.26 0.568359 307.465V33.1958C0.568359 22.4005 3.26719 14.304 8.66485 8.90633C14.1975 3.37372 22.3614 0.607422 33.1568 0.607422H82.9502C93.6106 0.607422 101.64 3.37372 107.037 8.90633C112.57 14.304 115.336 22.4005 115.336 33.1958V307.465C115.336 318.26 112.57 326.356 107.037 331.754C101.64 337.287 93.6106 340.053 82.9502 340.053H33.1568ZM196.908 340.053C185.978 340.053 177.814 337.287 172.416 331.754C167.154 326.356 164.522 318.26 164.522 307.465V33.1958C164.522 22.4005 167.221 14.304 172.619 8.90633C178.017 3.37372 186.113 0.607422 196.908 0.607422H246.702C257.497 0.607422 265.594 3.37372 270.991 8.90633C276.524 14.304 279.29 22.4005 279.29 33.1958V307.465C279.29 318.26 276.524 326.356 270.991 331.754C265.594 337.287 257.497 340.053 246.702 340.053H196.908Z" fill="black" style="fill:black;fill-opacity:1;"/>
</svg>
