<svg width="305" height="341" viewBox="0 0 305 341" fill="none" xmlns="http://www.w3.org/2000/svg">
<path d="M0 37.6487V303.011C0 315.426 3.30607 324.804 9.91821 331.147C16.6653 337.489 24.6268 340.66 33.8029 340.66C41.8994 340.66 49.7934 338.433 57.4851 333.98L277.912 205.449C286.548 200.456 293.161 195.26 297.749 189.863C302.337 184.465 304.631 177.988 304.631 170.431C304.631 162.74 302.337 156.195 297.749 150.797C293.161 145.4 286.548 140.204 277.912 135.211L57.4851 6.88203C49.7934 2.29401 41.8994 0 33.8029 0C24.6268 0 16.6653 3.17113 9.91821 9.51338C3.30607 15.8556 0 25.2341 0 37.6487Z" fill="black" style="fill:black;fill-opacity:1;"/>
</svg>
